<mxfile host="app.diagrams.net" modified="2024-04-25T08:37:54.285Z" agent="Mozilla/5.0 (Macintosh; Intel Mac OS X 10_15_7) AppleWebKit/537.36 (KHTML, like Gecko) Chrome/123.0.0.0 Safari/537.36" version="24.2.3" etag="RGD7twnNw0G1pv8bFojH" type="github">
  <diagram name="Page-1" id="NEoU70wVajL5JJv38msS">
    <mxGraphModel>
      <root>
        <mxCell id="0" />
        <mxCell id="1" parent="0" />
      </root>
    </mxGraphModel>
  </diagram>
</mxfile>
